<?xml version="1.0" encoding="utf-8"?>
<!-- Generator: Adobe Illustrator 19.2.1, SVG Export Plug-In . SVG Version: 6.00 Build 0)  -->
<svg version="1.1" id="Layer_1" xmlns="http://www.w3.org/2000/svg" xmlns:xlink="http://www.w3.org/1999/xlink" x="0px" y="0px"
	 viewBox="0 0 155.9 20.2" style="enable-background:new 0 0 155.9 20.2;" xml:space="preserve">
<style type="text/css">
	.st0{fill:#1A1A1A;}
</style>
<path class="st0" d="M106.9,10.2c0,5-3.1,8.4-6.8,8.4c-4.9,0-8.1-3.5-8.1-9.1c0-4.9,3.3-8.3,6.8-8.3C104.1,1.3,106.9,5.7,106.9,10.2
	 M58.8,19.8c0.3,0,0.6-0.1,0.6-0.6l0.1-2.7V3.8c0-1.2,0.5-2.5,1.9-2.5c0.3,0,0.3-0.6,0-0.6l-1.6,0.1H58l-2.7-0.1
	c-0.2,0-0.3,0.6,0,0.6c1.9,0,2.4,1.3,2.4,2.5V15L48,4.7l-3.4-3.9c-0.2-0.2-0.4-0.3-0.7-0.1c-0.3,0.2-0.2,0.5-0.2,0.6v15.3
	c0,1.2-0.5,2.5-1.9,2.5c-0.3,0-0.3,0.6,0,0.6l1.6-0.1h1.7l2.7,0.1c0.2,0,0.3-0.6,0-0.6c-1.9,0-2.4-1.3-2.4-2.5V6.1l10.3,11l2.5,2.6
	C58.4,19.8,58.6,19.8,58.8,19.8 M33.1,19.8c0.2,0,0.3-0.6,0-0.6c-1.7,0-2.1-1.3-2.1-2.5v-13c0-1.4,0.5-2.5,1.6-2.5
	c0.3,0,0.3-0.6,0-0.6l-1.9,0.1h-2.3l-1.9-0.1c-0.2,0-0.3,0.6,0,0.6c1.1,0,1.6,1,1.6,2.5v13c0,1.2-0.5,2.5-2.1,2.5
	c-0.3,0-0.3,0.6,0,0.6l2.4-0.1h2.3L33.1,19.8z M16.9,20.2c1,0,1.6-0.2,2.4-0.6c0.1-0.1,0.1-0.5-0.2-0.5h-0.2c-1.4,0-3.5-1.6-4.8-3
	l-6.9-7l5-5.1c2-2,2.9-2.5,4.6-2.8c0.3-0.1,0.3-0.6,0-0.6l-2.4,0.1h-0.8l-1.8-0.1c-0.3,0-0.4,0.1-0.4,0.2c0,0.3,0.4,0.4,0.4,1
	c0,0.3-0.1,0.6-0.7,1.2L5.2,8.7V3.6c0-1.2,0.5-2.5,2.1-2.5c0.3,0,0.3-0.6,0-0.6L4.9,0.6H2.6L0.2,0.5c-0.2,0-0.3,0.6,0,0.6
	c1.7,0,2.1,1.3,2.1,2.5v13c0,1.2-0.5,2.5-2.1,2.5c-0.3,0-0.3,0.6,0,0.6l2.4-0.1h2.3l2.4,0.1c0.2,0,0.3-0.6,0-0.6
	c-1.7,0-2.1-1.3-2.1-2.5v-5.9l6.4,6.8C13.8,19.9,15.3,20.2,16.9,20.2 M77.4,19.8c0.2,0,0.3-0.6,0-0.6c-2.2,0-2.4-1.3-2.4-2.5v-6.4
	l2.5-0.1c2.2-0.1,2.7,0.3,2.8,1.8c0,0.2,0.2,0.3,0.4,0.3c0.2,0,0.3-0.1,0.3-0.3l0.1-2.2l0.3-2.3c0-0.2-0.6-0.3-0.6-0.1
	c-0.1,1-0.8,1.5-1.7,1.5H75V2.2l3.2-0.2C80.3,1.8,80.9,2.3,81,4c0,0.2,0.2,0.3,0.4,0.3c0.2,0,0.3-0.1,0.3-0.3L81.8,2L82,0.6
	c0-0.2-0.3-0.2-0.4-0.2c-0.3,0.1-0.8,0.2-1.6,0.2h-7.6L70,0.5c-0.2,0-0.3,0.6,0,0.6c1.7,0,2.1,1.3,2.1,2.5v13c0,1.2-0.5,2.5-2.1,2.5
	c-0.3,0-0.3,0.6,0,0.6l2.4-0.1h2.3L77.4,19.8z M153.5,20.2c1,0,1.6-0.2,2.4-0.6c0.1-0.1,0.1-0.5-0.2-0.5h-0.2c-1.4,0-3.5-1.6-4.8-3
	L143.8,9l4.4-4.4c2.5-2.5,3.2-3.1,5.5-3.5c0.3-0.1,0.3-0.6,0-0.6l-2.7,0.1h-0.8l-1.8-0.1c-0.3,0-0.4,0.1-0.4,0.2
	c0,0.3,0.4,0.4,0.4,1c0,0.3-0.1,0.6-0.7,1.2l-5.8,5.8V3.6c0-1.2,0.5-2.5,2.1-2.5c0.3,0,0.3-0.6,0-0.6l-2.4,0.1h-2.3l-2.4-0.1
	c-0.2,0-0.3,0.6,0,0.6c1.7,0,2.1,1.3,2.1,2.5v13c0,1.2-0.5,2.5-2.1,2.5c-0.3,0-0.3,0.6,0,0.6l2.4-0.1h2.3l2.4,0.1
	c0.2,0,0.3-0.6,0-0.6c-1.7,0-2.1-1.3-2.1-2.5v-5.9l6.4,6.8C150.4,19.9,151.9,20.2,153.5,20.2 M129.1,19.8l0.3-4.2
	c0-0.2-0.4-0.3-0.5,0c-0.9,2-3.1,3.1-4.8,3.1c-1.9,0-2.7-1-2.7-2.8V3.6c0-1.2,0.5-2.5,2.1-2.5c0.3,0,0.3-0.6,0-0.6l-2.4,0.1h-2.3
	l-2.4-0.1c-0.2,0-0.3,0.6,0,0.6c1.7,0,2.1,1.3,2.1,2.5v13c0,1.2-0.5,2.5-2.1,2.5c-0.3,0-0.3,0.6,0,0.6l2.4-0.1h7.6L129.1,19.8z
	 M88.9,10.9c0,4.7,5.1,9.2,10.6,9.2c5,0,10.4-3.7,10.4-10.9c0-4.6-5.2-9.2-10.6-9.2C94.2,0,88.9,4.6,88.9,10.9"/>
</svg>
