<?xml version="1.0" encoding="utf-8"?>
<!-- Generator: Adobe Illustrator 16.0.0, SVG Export Plug-In . SVG Version: 6.00 Build 0)  -->
<!DOCTYPE svg PUBLIC "-//W3C//DTD SVG 1.1//EN" "http://www.w3.org/Graphics/SVG/1.1/DTD/svg11.dtd">
<svg version="1.1" id="Layer_1" xmlns="http://www.w3.org/2000/svg" xmlns:xlink="http://www.w3.org/1999/xlink" x="0px" y="0px"
	 width="586.5px" height="360px" viewBox="0 0 586.5 360" enable-background="new 0 0 586.5 360" xml:space="preserve">
<path fill="#1A1A1A" d="M246.851,180.231c0,11.546-7.159,19.397-15.702,19.397c-11.315,0-18.705-8.082-18.705-21.014
	c0-11.314,7.621-19.166,15.703-19.166C240.385,159.679,246.851,169.84,246.851,180.231 M135.779,202.398
	c0.693,0,1.386-0.23,1.386-1.385l0.231-6.234v-29.327c0-2.771,1.154-5.773,4.387-5.773c0.693,0,0.693-1.385,0-1.385l-3.695,0.231
	h-4.156l-6.235-0.231c-0.462,0-0.693,1.385,0,1.385c4.387,0,5.542,3.002,5.542,5.773v25.862L110.84,167.53l-7.851-9.005
	c-0.462-0.462-0.924-0.693-1.617-0.231s-0.462,1.154-0.462,1.385v35.331c0,2.771-1.154,5.773-4.387,5.773
	c-0.693,0-0.693,1.385,0,1.385l3.695-0.23h3.925l6.235,0.23c0.462,0,0.693-1.385,0-1.385c-4.387,0-5.542-3.002-5.542-5.773v-24.247
	l23.785,25.401l5.773,6.004C134.855,202.398,135.317,202.398,135.779,202.398 M76.434,202.398c0.462,0,0.693-1.385,0-1.385
	c-3.926,0-4.849-3.002-4.849-5.773v-30.019c0-3.233,1.154-5.773,3.694-5.773c0.693,0,0.693-1.385,0-1.385l-4.387,0.231h-5.311
	l-4.388-0.231c-0.461,0-0.692,1.385,0,1.385c2.541,0,3.695,2.309,3.695,5.773v30.019c0,2.771-1.154,5.773-4.849,5.773
	c-0.693,0-0.693,1.385,0,1.385l5.542-0.23h5.311L76.434,202.398z M39.025,203.322c2.309,0,3.695-0.461,5.542-1.385
	c0.231-0.231,0.231-1.154-0.462-1.154h-0.461c-3.233,0-8.083-3.695-11.084-6.928l-15.934-16.165l11.546-11.777
	c4.618-4.618,6.697-5.773,10.622-6.466c0.693-0.231,0.693-1.385,0-1.385l-5.542,0.231h-1.847l-4.157-0.231
	c-0.692,0-0.923,0.231-0.923,0.462c0,0.692,0.923,0.923,0.923,2.309c0,0.693-0.231,1.385-1.616,2.771l-13.624,13.162V164.99
	c0-2.771,1.154-5.773,4.849-5.773c0.693,0,0.693-1.385,0-1.385l-5.542,0.231H6.004l-5.542-0.231c-0.462,0-0.693,1.385,0,1.385
	c3.925,0,4.849,3.002,4.849,5.773v30.02c0,2.771-1.154,5.773-4.849,5.773c-0.693,0-0.693,1.385,0,1.385l5.542-0.23h5.311l5.542,0.23
	c0.462,0,0.693-1.385,0-1.385c-3.926,0-4.849-3.002-4.849-5.773v-13.624l14.779,15.702C31.867,202.63,35.331,203.322,39.025,203.322
	 M178.73,202.398c0.462,0,0.693-1.385,0-1.385c-5.08,0-5.542-3.002-5.542-5.773v-14.778l5.773-0.231
	c5.08-0.231,6.234,0.693,6.466,4.157c0,0.462,0.462,0.692,0.923,0.692c0.463,0,0.693-0.23,0.693-0.692l0.23-5.081l0.693-5.311
	c0-0.462-1.386-0.693-1.386-0.231c-0.231,2.309-1.847,3.464-3.925,3.464h-9.468v-15.472l7.389-0.461
	c4.85-0.462,6.235,0.692,6.466,4.618c0,0.462,0.462,0.693,0.924,0.693s0.692-0.231,0.692-0.693l0.231-4.618l0.461-3.233
	c0-0.462-0.692-0.462-0.923-0.462c-0.692,0.231-1.848,0.462-3.694,0.462h-17.55l-5.542-0.231c-0.462,0-0.693,1.385,0,1.385
	c3.926,0,4.849,3.002,4.849,5.773v30.02c0,2.771-1.154,5.773-4.849,5.773c-0.693,0-0.693,1.385,0,1.385l5.542-0.23h5.311
	L178.73,202.398z M354.458,203.322c2.31,0,3.694-0.461,5.542-1.385c0.23-0.231,0.23-1.154-0.462-1.154h-0.462
	c-3.232,0-8.082-3.695-11.084-6.928l-15.934-16.396l10.161-10.16c5.772-5.773,7.389-7.159,12.7-8.083
	c0.692-0.231,0.692-1.385,0-1.385l-6.234,0.231h-1.848l-4.156-0.231c-0.693,0-0.924,0.231-0.924,0.462
	c0,0.692,0.924,0.923,0.924,2.309c0,0.693-0.231,1.385-1.617,2.771l-13.393,13.393V164.99c0-2.771,1.154-5.773,4.849-5.773
	c0.693,0,0.693-1.385,0-1.385l-5.542,0.231h-5.311l-5.542-0.231c-0.462,0-0.693,1.385,0,1.385c3.926,0,4.849,3.002,4.849,5.773
	v30.02c0,2.771-1.154,5.773-4.849,5.773c-0.693,0-0.693,1.385,0,1.385l5.542-0.23h5.311l5.542,0.23c0.462,0,0.693-1.385,0-1.385
	c-3.925,0-4.849-3.002-4.849-5.773v-13.624l14.778,15.702C347.3,202.63,350.764,203.322,354.458,203.322 M298.114,202.398
	l0.692-9.697c0-0.463-0.924-0.693-1.154,0c-2.078,4.617-7.158,7.158-11.084,7.158c-4.388,0-6.234-2.31-6.234-6.467V164.99
	c0-2.771,1.154-5.773,4.849-5.773c0.692,0,0.692-1.385,0-1.385l-5.542,0.231h-5.311l-5.543-0.231c-0.461,0-0.692,1.385,0,1.385
	c3.926,0,4.85,3.002,4.85,5.773v30.02c0,2.771-1.154,5.773-4.85,5.773c-0.692,0-0.692,1.385,0,1.385l5.543-0.23h17.549
	L298.114,202.398z M205.285,181.848c0,10.854,11.777,21.244,24.478,21.244c11.546,0,24.016-8.544,24.016-25.17
	c0-10.622-12.008-21.245-24.478-21.245C217.523,156.677,205.285,167.3,205.285,181.848"/>
<path stroke="#000000" stroke-miterlimit="10" d="M413.351,203.261l-11.732-33.956l-11.235,33.956h-0.559l-13.098-36.998
	c-0.333-0.91-0.663-1.675-0.994-2.296c-0.332-0.621-0.683-1.158-1.056-1.614c-0.371-0.455-0.677-1.077-1.241-1.242
	c-5.228-1.527-2.311-2.194-2.311-2.194h13.708c0,0,2.105,0.917-1.687,1.375c-0.48,0.058-0.995,0.564-1.208,0.833
	c-0.209,0.265-0.185,0.555-0.309,0.824c-0.124,0.27-0.187,0.569-0.187,0.9c0,0.208,0.021,0.404,0.062,0.59
	c0.041,0.187,0.082,0.394,0.124,0.621c0.041,0.228,0.207,0.756,0.496,1.583l9.312,26.631l8.691-27.189
	c-0.248-0.662-0.519-1.242-0.808-1.738c-0.29-0.497-0.6-0.941-0.931-1.335c-0.332-0.393-0.714-0.765-1.148-1.117
	c-0.435-0.352-0.963-0.755-1.583-1.21v-0.497h13.16v0.497c-0.662,0.29-1.211,0.559-1.646,0.807
	c-0.434,0.249-0.786,0.487-1.055,0.714c-0.27,0.228-0.477,0.476-0.621,0.745c-0.146,0.27-0.217,0.569-0.217,0.9
	c0,0.208,0.01,0.415,0.031,0.621c0.02,0.208,0.062,0.425,0.124,0.652c0.062,0.228,0.133,0.466,0.217,0.714
	c0.082,0.249,0.165,0.518,0.249,0.807l8.938,27.003l8.938-26.879c0.083-0.289,0.155-0.537,0.218-0.745
	c0.062-0.207,0.113-0.403,0.155-0.59c0.04-0.186,0.071-0.362,0.093-0.527c0.021-0.166,0.031-0.351,0.031-0.559
	c0-0.331-0.084-0.641-0.248-0.931c-0.166-0.289-0.415-0.568-0.745-0.838c-0.332-0.269-0.714-0.537-1.148-0.807
	c-0.435-0.268-1.046-0.63-1.831-1.086v-0.497h11.732v0.497c-0.828,0.58-1.48,1.055-1.956,1.427c-0.476,0.373-0.91,0.798-1.304,1.273
	c-0.394,0.476-0.766,1.024-1.117,1.645s-0.673,1.366-0.962,2.234l-12.788,36.998H413.351z"/>
<path stroke="#000000" stroke-miterlimit="10" d="M446.562,202.825v0.497h-11.669v-0.497c0.784-0.537,1.406-1.002,1.861-1.396
	c0.455-0.392,0.878-0.806,1.272-1.24c0.393-0.436,0.775-0.963,1.148-1.585c0.373-0.62,0.785-1.406,1.242-2.357l17.381-37.123h0.311
	l17.381,37.123c0.456,0.993,0.858,1.79,1.211,2.391c0.352,0.6,0.714,1.127,1.087,1.582c0.371,0.455,0.785,0.879,1.24,1.272
	c0.456,0.395,1.035,0.838,1.739,1.334v0.497h-13.533v-0.497c0.661-0.289,1.211-0.558,1.646-0.807
	c0.435-0.248,0.786-0.485,1.055-0.714c0.269-0.228,0.455-0.475,0.559-0.745c0.103-0.269,0.155-0.567,0.155-0.899
	c0-0.208-0.021-0.403-0.062-0.59c-0.042-0.187-0.094-0.383-0.155-0.59c-0.062-0.207-0.146-0.424-0.249-0.652
	c-0.104-0.227-0.238-0.505-0.403-0.838l-3.725-8.007h-19.119l-3.601,7.945c-0.125,0.289-0.238,0.558-0.342,0.807
	c-0.104,0.248-0.186,0.466-0.247,0.652c-0.063,0.186-0.104,0.372-0.125,0.558c-0.021,0.187-0.031,0.384-0.031,0.59
	c0,0.332,0.083,0.621,0.249,0.869c0.164,0.249,0.403,0.497,0.713,0.746c0.312,0.248,0.693,0.496,1.148,0.744
	S445.776,202.453,446.562,202.825z M456.433,168.249l-8.318,18.188h16.761L456.433,168.249z"/>
<path stroke="#000000" stroke-miterlimit="10" d="M516.066,187.399c-0.455-0.847-1.024-1.562-1.707-2.142
	c-0.682-0.579-1.521-1.013-2.514-1.304c-0.993-0.289-2.215-0.435-3.663-0.435h-8.132v12.85c0,1.035,0.071,1.873,0.217,2.515
	s0.363,1.179,0.653,1.613c0.288,0.435,0.66,0.818,1.117,1.149c0.454,0.332,1.116,0.724,1.986,1.179v0.497h-13.533v-0.497
	c0.828-0.455,1.469-0.847,1.924-1.179c0.456-0.331,0.839-0.715,1.149-1.149c0.31-0.435,0.527-0.972,0.651-1.613
	s0.186-1.479,0.186-2.515v-29.547c0-1.034-0.062-1.873-0.186-2.515c-0.124-0.641-0.342-1.179-0.651-1.614
	c-0.311-0.435-0.693-0.817-1.149-1.148c-0.455-0.331-1.096-0.724-1.924-1.18v-0.497h19.678c2.318,0,4.449,0.208,6.394,0.621
	c1.945,0.414,3.652,1.077,5.122,1.986c1.469,0.911,2.616,2.111,3.445,3.601c0.827,1.49,1.241,3.249,1.241,5.276
	c0,1.862-0.352,3.487-1.055,4.873c-0.704,1.387-1.667,2.525-2.887,3.414c-1.222,0.89-2.587,1.551-4.097,1.986
	c-1.512,0.436-3.115,0.652-4.812,0.652v0.187c1.366,0.165,2.565,0.456,3.6,0.868c1.035,0.415,1.945,0.942,2.732,1.584
	c0.785,0.642,1.448,1.417,1.986,2.327 M500.051,162.29v18.748h9.125c1.572,0,3.021-0.165,4.346-0.496
	c1.324-0.332,2.483-0.87,3.477-1.615c0.993-0.745,1.778-1.738,2.358-2.979c0.579-1.242,0.869-2.752,0.869-4.532
	c0-1.614-0.259-3-0.776-4.159c-0.518-1.158-1.271-2.1-2.265-2.824c-0.993-0.724-2.163-1.262-3.507-1.614
	c-1.347-0.351-2.847-0.528-4.502-0.528H500.051z"/>
<path stroke="#000000" stroke-miterlimit="10" d="M563.395,161.172c-1.241,0-2.39,0.166-3.445,0.497
	c-1.055,0.332-1.986,0.828-2.794,1.49c-0.806,0.663-1.427,1.449-1.861,2.359c-0.435,0.911-0.652,1.946-0.652,3.104
	c0,1.159,0.187,2.183,0.559,3.072c0.373,0.891,0.91,1.667,1.614,2.328c0.703,0.663,1.573,1.222,2.607,1.676
	c1.033,0.456,2.235,0.869,3.6,1.242l5.339,1.428c1.779,0.497,3.321,1.076,4.626,1.739c1.303,0.661,2.409,1.469,3.32,2.421
	c0.91,0.951,1.603,2.101,2.08,3.445c0.475,1.345,0.713,2.907,0.713,4.686c0,2.029-0.403,3.84-1.21,5.432
	c-0.807,1.595-1.915,2.929-3.321,4.004c-1.407,1.076-3.011,1.885-4.811,2.421c-1.801,0.538-3.715,0.808-5.743,0.808
	c-1.158,0-2.307-0.104-3.444-0.312c-1.14-0.206-2.215-0.484-3.228-0.836c-1.016-0.352-1.915-0.735-2.701-1.15
	c-0.787-0.412-1.469-0.826-2.049-1.24l-2.792,3.538h-0.56l-0.745-13.719h0.807c0.952,1.82,1.935,3.414,2.949,4.779
	c1.014,1.366,2.12,2.506,3.321,3.415c1.199,0.91,2.503,1.604,3.91,2.079c1.406,0.477,2.918,0.713,4.531,0.713
	c1.531,0,2.908-0.195,4.129-0.589c1.221-0.393,2.255-0.963,3.104-1.706c0.848-0.746,1.499-1.666,1.956-2.764
	c0.455-1.096,0.682-2.328,0.682-3.692c0-1.035-0.154-1.986-0.465-2.855c-0.311-0.87-0.775-1.635-1.396-2.298
	c-0.621-0.66-1.388-1.23-2.297-1.707c-0.911-0.476-1.966-0.879-3.166-1.211l-5.711-1.552c-1.862-0.496-3.498-1.086-4.904-1.768
	c-1.407-0.683-2.598-1.491-3.569-2.422c-0.973-0.931-1.707-2.038-2.204-3.321c-0.496-1.282-0.744-2.752-0.744-4.407
	c0-1.738,0.33-3.321,0.993-4.75c0.661-1.427,1.623-2.658,2.887-3.693c1.262-1.034,2.752-1.831,4.47-2.39
	c1.717-0.559,3.59-0.838,5.617-0.838c1.076,0,2.121,0.094,3.135,0.279c1.014,0.187,1.945,0.415,2.794,0.683
	c0.848,0.27,1.603,0.559,2.266,0.869c0.661,0.311,1.366,0.651,2.11,1.024l2.731-2.856h0.497l0.062,12.416h-0.62
	c-1.035-1.738-1.977-3.186-2.825-4.345c-0.849-1.158-1.76-2.151-2.731-2.98c-0.973-0.827-2.07-1.458-3.289-1.893
	C566.302,161.39,564.926,161.172,563.395,161.172z"/>
<path fill="#1A1A1A" d="M539.347,201.314h-0.387c-2.699,0-7.91-2.223-9.792-5.188l-5.767-7.397l-2.441-3.478l-0.379,0.153
	l-0.549-0.647l0.488,0.643l-6.853-0.643c12.666,16.605,10.083,15.909,17.438,19.081c1.929,0,7.082,0.323,8.626-0.498
	C539.924,203.135,539.924,201.314,539.347,201.314z"/>
</svg>
